<svg width="24" height="24" viewBox="0 0 24 24" fill="none" xmlns="http://www.w3.org/2000/svg">
<path d="M19.8409 4.49991H16.0909V2.79537C16.0898 1.85446 15.3273 1.09193 14.3864 1.09082H9.61363C8.67272 1.09193 7.91019 1.85446 7.90909 2.79537V4.49991H4.15909C3.97082 4.49991 3.81818 4.65255 3.81818 4.84082V22.5681C3.81818 22.7564 3.97082 22.909 4.15909 22.909H19.8409C20.0292 22.909 20.1818 22.7564 20.1818 22.5681V4.84082C20.1818 4.65255 20.0292 4.49991 19.8409 4.49991ZM8.5909 2.79537C8.5909 2.23052 9.04879 1.77264 9.61363 1.77264H14.3864C14.9512 1.77264 15.4091 2.23052 15.4091 2.79537V4.49991H8.5909V2.79537ZM19.5 22.2272H4.49999V5.18173H7.90909V6.54537C7.90909 6.73363 8.06173 6.88627 8.24999 6.88627C8.43826 6.88627 8.5909 6.73363 8.5909 6.54537V5.18173H15.4091V6.54537C15.4091 6.73363 15.5617 6.88627 15.75 6.88627C15.9383 6.88627 16.0909 6.73363 16.0909 6.54537V5.18173H19.5V22.2272Z" fill="currentColor" stroke="#141211" stroke-width="0.3"/>
</svg>
