<svg width="24" height="24" viewBox="0 0 24 24" fill="none" xmlns="http://www.w3.org/2000/svg">
<path d="M16.909 2.00012C14.9545 2.00314 13.1235 2.95644 11.9999 4.5557C10.8763 2.95644 9.04537 2.00314 7.09082 2.00012C3.89444 2.00012 1.09082 4.97402 1.09082 8.36376C1.09082 11.6674 2.95623 15.0699 6.48571 18.2038C8.121 19.653 9.91486 20.9128 11.833 21.9595C11.9378 22.0134 12.0621 22.0134 12.1668 21.9595C14.0842 20.9128 15.8776 19.6528 17.5123 18.2038C21.0436 15.0699 22.909 11.6674 22.909 8.36376C22.909 4.97402 20.1054 2.00012 16.909 2.00012V2.00012ZM11.9999 21.223C10.6643 20.4859 1.81809 15.3368 1.81809 8.36376C1.81809 5.36127 4.28169 2.72739 7.09082 2.72739C8.99387 2.73077 10.7481 3.7574 11.6831 5.41507C11.7531 5.52196 11.8722 5.58624 11.9999 5.58624C12.1276 5.58624 12.2467 5.52196 12.3167 5.41507C13.2517 3.7574 15.0059 2.73077 16.909 2.72739C19.7181 2.72739 22.1817 5.36127 22.1817 8.36376C22.1817 15.3368 13.3355 20.4859 11.9999 21.223Z" fill="currentColor"/>
<path fill-rule="evenodd" clip-rule="evenodd" d="M0.940796 8.36386C0.940796 4.89972 3.80338 1.85022 7.0908 1.85022H7.09103C9.0247 1.85321 10.8403 2.76364 11.9999 4.30099C13.1294 2.80339 14.8816 1.90071 16.759 1.85227V1.85022H16.909C20.1964 1.85022 23.059 4.89972 23.059 8.36386C23.059 11.7262 21.1611 15.1662 17.6119 18.3161L17.6118 18.3161C15.9686 19.7727 14.166 21.0391 12.2387 22.0912L12.2355 22.0929L12.2355 22.0929C12.0876 22.1691 11.9121 22.1691 11.7643 22.0929L11.7611 22.0913L11.7611 22.0912C9.83308 21.0391 8.02995 19.7729 6.3862 18.3161L6.38609 18.316C2.83866 15.1662 0.940796 11.7262 0.940796 8.36386ZM16.9091 2.15022C15.0034 2.1532 13.2181 3.0827 12.1226 4.64203L11.9999 4.81672L11.8771 4.64203C10.7816 3.0827 8.9964 2.1532 7.09068 2.15022C3.98539 2.15029 1.2408 5.04856 1.2408 8.36386C1.2408 11.6088 3.07372 14.9737 6.58517 18.0916C8.21151 19.5329 9.99549 20.7858 11.9031 21.8269C11.964 21.8577 12.0358 21.8577 12.0967 21.8269C14.0036 20.7858 15.787 19.5327 17.4128 18.0916C20.9261 14.9737 22.759 11.6088 22.759 8.36386C22.759 5.04856 20.0144 2.15029 16.9091 2.15022ZM16.9087 2.57749L16.909 2.57749C19.8102 2.57749 22.3317 5.28811 22.3317 8.36386C22.3317 11.9135 20.0823 14.9813 17.6947 17.2409C15.303 19.5045 12.745 20.9832 12.0724 21.3544L11.9999 21.3944L11.9274 21.3544C11.2547 20.9832 8.69679 19.5045 6.30503 17.2409C3.91746 14.9813 1.66807 11.9135 1.66807 8.36386C1.66807 5.28811 4.18955 2.57749 7.0908 2.57749H7.09106C9.0463 2.58096 10.8488 3.63475 11.811 5.33665C11.8535 5.39895 11.9242 5.43633 11.9999 5.43633C12.0756 5.43633 12.1463 5.39893 12.1888 5.33659C13.151 3.63473 14.9535 2.58096 16.9087 2.57749ZM7.09066 2.87749C4.37371 2.87757 1.96807 5.43467 1.96807 8.36386C1.96807 11.7873 4.1418 14.7805 6.51124 17.023C8.79762 19.1869 11.2407 20.6274 11.9999 21.0515C12.759 20.6274 15.2022 19.1869 17.4885 17.023C19.858 14.7805 22.0317 11.7873 22.0317 8.36386C22.0317 5.43467 19.6261 2.87757 16.9091 2.87749C15.0601 2.88082 13.3557 3.87829 12.4473 5.48886L12.4424 5.49749L12.4422 5.49731C12.3444 5.64662 12.1781 5.73633 11.9999 5.73633C11.8217 5.73633 11.6553 5.64662 11.5576 5.49731L11.5522 5.48902L11.5525 5.48886C10.644 3.87829 8.93963 2.88082 7.09066 2.87749Z" fill="currentColor"/>
</svg>
