<svg width="24" height="24" viewBox="0 0 24 24" fill="none" xmlns="http://www.w3.org/2000/svg">
<path d="M22.7759 22.1331L16.1373 15.4944C17.5162 13.9635 18.3637 11.9449 18.3637 9.72716C18.3636 4.96512 14.4894 1.09082 9.72729 1.09082C4.96522 1.09082 1.09091 4.96512 1.09091 9.7272C1.09091 14.4893 4.96522 18.3636 9.72729 18.3636C11.945 18.3636 13.9636 17.5161 15.4946 16.1372L22.1332 22.7758C22.222 22.8646 22.3383 22.909 22.4546 22.909C22.5709 22.909 22.6872 22.8646 22.776 22.7758C22.9535 22.5983 22.9535 22.3106 22.7759 22.1331ZM9.72729 17.4545C5.46682 17.4545 2.00003 13.9881 2.00003 9.7272C2.00003 5.4663 5.46682 1.9999 9.72729 1.9999C13.9878 1.9999 17.4545 5.46626 17.4545 9.7272C17.4545 13.9881 13.9878 17.4545 9.72729 17.4545Z" fill="currentColor" stroke="#141211" stroke-width="0.3"/>
</svg>
