<svg width="24" height="24" viewBox="0 0 24 24" fill="none" xmlns="http://www.w3.org/2000/svg">
<g clip-path="url(#clip0_4061_152)">
<path d="M22.3366 17.9228L17.9205 14.9778C17.3601 14.6071 16.6089 14.7291 16.1946 15.2581L14.9082 16.9121C14.7429 17.13 14.4424 17.1933 14.2032 17.0604L13.9585 16.9255C13.1474 16.4834 12.1381 15.9329 10.1046 13.8987C8.07104 11.8645 7.51949 10.8544 7.07735 10.0447L6.94318 9.80004C6.8085 9.56093 6.87054 9.25914 7.0886 9.0925L8.74142 7.80653C9.27027 7.39217 9.39242 6.64118 9.02212 6.08059L6.0771 1.66452C5.6976 1.09366 4.93621 0.922296 4.3487 1.27547L2.50205 2.38475C1.92183 2.72586 1.49614 3.27831 1.31425 3.92632C0.649273 6.34923 1.14953 10.5308 7.30935 16.6913C12.2094 21.591 15.8572 22.9086 18.3645 22.9086C18.9415 22.9111 19.5163 22.836 20.0733 22.6854C20.7215 22.5037 21.274 22.078 21.6149 21.4976L22.7253 19.652C23.079 19.0644 22.9077 18.3025 22.3366 17.9228ZM22.0988 19.279L20.9909 21.1256C20.7462 21.5445 20.3488 21.8525 19.882 21.9851C17.6452 22.5992 13.7375 22.0906 7.82379 16.1769C1.91011 10.2632 1.40151 6.35579 2.0156 4.1187C2.14837 3.65138 2.45676 3.25347 2.87619 3.00831L4.72283 1.90047C4.97775 1.74709 5.30821 1.82144 5.47289 2.06916L7.07267 4.47097L8.41539 6.48485C8.57619 6.72801 8.52336 7.05391 8.29396 7.23385L6.64076 8.51982C6.13765 8.90452 5.99398 9.6006 6.30373 10.153L6.43501 10.3916C6.89968 11.2438 7.47739 12.304 9.58654 14.4128C11.6957 16.5216 12.7555 17.0993 13.6074 17.5639L13.8462 17.6956C14.3987 18.0053 15.0948 17.8616 15.4795 17.3585L16.7654 15.7053C16.9454 15.4761 17.2712 15.4233 17.5144 15.5839L21.9301 18.5289C22.178 18.6935 22.2524 19.0241 22.0988 19.279Z" fill="currentColor" stroke="#141211" stroke-width="0.3"/>
</g>
<defs>
<clipPath id="clip0_4061_152">
<rect width="24" height="24" fill="white"/>
</clipPath>
</defs>
</svg>
